<mxfile host="app.diagrams.net" agent="Mozilla/5.0 (Windows NT 10.0; Win64; x64) AppleWebKit/537.36 (KHTML, like Gecko) Chrome/131.0.0.0 Safari/537.36" version="25.0.3">
  <diagram name="PÃ¡gina-1" id="LuqwvwlpH62hibnQKdCR">
    <mxGraphModel dx="2181" dy="1817" grid="1" gridSize="10" guides="1" tooltips="1" connect="1" arrows="1" fold="1" page="1" pageScale="1" pageWidth="827" pageHeight="1169" math="0" shadow="0">
      <root>
        <mxCell id="0" />
        <mxCell id="1" parent="0" />
        <mxCell id="LH4rqOTp2wbxo8YjwL2F-1" value="" style="rounded=0;whiteSpace=wrap;html=1;" parent="1" vertex="1">
          <mxGeometry x="-803" y="-1140" width="780" height="640" as="geometry" />
        </mxCell>
        <mxCell id="LH4rqOTp2wbxo8YjwL2F-2" style="edgeStyle=orthogonalEdgeStyle;rounded=0;orthogonalLoop=1;jettySize=auto;html=1;entryX=0;entryY=0.5;entryDx=0;entryDy=0;endArrow=none;endFill=0;" parent="1" source="LH4rqOTp2wbxo8YjwL2F-5" target="LH4rqOTp2wbxo8YjwL2F-10" edge="1">
          <mxGeometry relative="1" as="geometry" />
        </mxCell>
        <mxCell id="LH4rqOTp2wbxo8YjwL2F-3" value="1" style="edgeLabel;html=1;align=center;verticalAlign=middle;resizable=0;points=[];" parent="LH4rqOTp2wbxo8YjwL2F-2" vertex="1" connectable="0">
          <mxGeometry x="-0.7833" y="2" relative="1" as="geometry">
            <mxPoint as="offset" />
          </mxGeometry>
        </mxCell>
        <mxCell id="LH4rqOTp2wbxo8YjwL2F-4" value="n" style="edgeLabel;html=1;align=center;verticalAlign=middle;resizable=0;points=[];" parent="LH4rqOTp2wbxo8YjwL2F-2" vertex="1" connectable="0">
          <mxGeometry x="0.788" y="-4" relative="1" as="geometry">
            <mxPoint y="-9" as="offset" />
          </mxGeometry>
        </mxCell>
        <mxCell id="LH4rqOTp2wbxo8YjwL2F-5" value="&lt;div style=&quot;box-sizing:border-box;width:100%;background:#e4e4e4;padding:2px;&quot;&gt;usuario&lt;/div&gt;&lt;table style=&quot;width:100%;font-size:1em;&quot; cellpadding=&quot;2&quot; cellspacing=&quot;0&quot;&gt;&lt;tbody&gt;&lt;tr&gt;&lt;td&gt;&lt;br&gt;&lt;/td&gt;&lt;td&gt;&lt;b&gt;&lt;font color=&quot;#4964a6&quot;&gt;id: serial&lt;br&gt;&lt;/font&gt;&lt;/b&gt;&lt;/td&gt;&lt;/tr&gt;&lt;tr&gt;&lt;td&gt;&lt;br&gt;&lt;/td&gt;&lt;td&gt;&lt;font color=&quot;#4964a6&quot;&gt;pk_usuarios: constraint&lt;br&gt;&lt;/font&gt;&lt;br&gt;&lt;/td&gt;&lt;/tr&gt;&lt;tr&gt;&lt;td&gt;&lt;/td&gt;&lt;td&gt;fecha_creacion:&amp;nbsp;&lt;span style=&quot;box-sizing: border-box; color: rgb(31, 35, 40); background-color: rgb(255, 255, 255);&quot;&gt;timestamp&amp;nbsp;&lt;/span&gt;&lt;span style=&quot;color: rgb(32, 33, 36); font-family: &amp;quot;Google Sans&amp;quot;, arial, sans-serif; background-color: rgb(255, 255, 255);&quot;&gt;&amp;lt;&lt;/span&gt;&lt;span style=&quot;color: rgb(32, 33, 36); font-family: &amp;quot;Google Sans&amp;quot;, arial, sans-serif; background-color: rgb(255, 255, 255);&quot;&gt;&amp;lt;nn&lt;/span&gt;&lt;span style=&quot;color: rgb(32, 33, 36); font-family: &amp;quot;Google Sans&amp;quot;, arial, sans-serif; background-color: rgb(255, 255, 255);&quot;&gt;&amp;gt;&lt;/span&gt;&amp;gt;&lt;br&gt;fecha_modificacion:&amp;nbsp;&lt;span style=&quot;color: rgb(31, 35, 40); background-color: rgb(255, 255, 255);&quot;&gt;timestamp&amp;nbsp;&lt;/span&gt;&lt;span style=&quot;color: rgb(32, 33, 36); font-family: &amp;quot;Google Sans&amp;quot;, arial, sans-serif; background-color: rgb(255, 255, 255);&quot;&gt;&amp;lt;&lt;/span&gt;&lt;span style=&quot;color: rgb(32, 33, 36); font-family: &amp;quot;Google Sans&amp;quot;, arial, sans-serif; background-color: rgb(255, 255, 255);&quot;&gt;&amp;lt;nn&lt;/span&gt;&lt;span style=&quot;color: rgb(32, 33, 36); font-family: &amp;quot;Google Sans&amp;quot;, arial, sans-serif; background-color: rgb(255, 255, 255);&quot;&gt;&amp;gt;&lt;/span&gt;&amp;gt;&lt;br&gt;activo: boolean&amp;nbsp;&lt;span style=&quot;color: rgb(32, 33, 36); font-family: &amp;quot;Google Sans&amp;quot;, arial, sans-serif; background-color: rgb(255, 255, 255);&quot;&gt;&amp;lt;&lt;/span&gt;&lt;span style=&quot;color: rgb(32, 33, 36); font-family: &amp;quot;Google Sans&amp;quot;, arial, sans-serif; background-color: rgb(255, 255, 255);&quot;&gt;&amp;lt;nn&lt;/span&gt;&lt;span style=&quot;color: rgb(32, 33, 36); font-family: &amp;quot;Google Sans&amp;quot;, arial, sans-serif; background-color: rgb(255, 255, 255);&quot;&gt;&amp;gt;&lt;/span&gt;&amp;gt;&lt;br&gt;documento: varchar(20)&lt;span style=&quot;color: rgb(32, 33, 36); font-family: &amp;quot;Google Sans&amp;quot;, arial, sans-serif; background-color: rgb(255, 255, 255);&quot;&gt;&amp;lt;&lt;/span&gt;&lt;span style=&quot;color: rgb(32, 33, 36); font-family: &amp;quot;Google Sans&amp;quot;, arial, sans-serif; background-color: rgb(255, 255, 255);&quot;&gt;&amp;lt;nn&lt;/span&gt;&lt;span style=&quot;color: rgb(32, 33, 36); font-family: &amp;quot;Google Sans&amp;quot;, arial, sans-serif; background-color: rgb(255, 255, 255);&quot;&gt;&amp;gt;&lt;/span&gt;&amp;gt;&lt;br&gt;&lt;br&gt;&lt;br&gt;&lt;br&gt;&lt;/td&gt;&lt;/tr&gt;&lt;/tbody&gt;&lt;/table&gt;" style="verticalAlign=top;align=left;overflow=fill;html=1;whiteSpace=wrap;" parent="1" vertex="1">
          <mxGeometry x="-763" y="-1100" width="260" height="160" as="geometry" />
        </mxCell>
        <mxCell id="LH4rqOTp2wbxo8YjwL2F-6" value="&lt;div style=&quot;box-sizing:border-box;width:100%;background:#e4e4e4;padding:2px;&quot;&gt;rol&lt;/div&gt;&lt;table style=&quot;width:100%;font-size:1em;&quot; cellpadding=&quot;2&quot; cellspacing=&quot;0&quot;&gt;&lt;tbody&gt;&lt;tr&gt;&lt;td&gt;&lt;br&gt;&lt;/td&gt;&lt;td&gt;&lt;b&gt;&lt;font color=&quot;#4964a6&quot;&gt;id: serial&lt;br&gt;&lt;/font&gt;&lt;/b&gt;&lt;/td&gt;&lt;/tr&gt;&lt;tr&gt;&lt;td&gt;&lt;br&gt;&lt;/td&gt;&lt;td&gt;&lt;font color=&quot;#4964a6&quot;&gt;pk_roles: constraint&lt;br&gt;fk_rol_sistema_informacion: constraint&lt;br&gt;&lt;/font&gt;&lt;br&gt;&lt;/td&gt;&lt;/tr&gt;&lt;tr&gt;&lt;td&gt;&lt;/td&gt;&lt;td&gt;fecha_creacion:&amp;nbsp;&lt;span style=&quot;box-sizing: border-box; color: rgb(31, 35, 40); background-color: rgb(255, 255, 255);&quot;&gt;timestamp&amp;nbsp;&lt;/span&gt;&lt;span style=&quot;color: rgb(32, 33, 36); font-family: &amp;quot;Google Sans&amp;quot;, arial, sans-serif; background-color: rgb(255, 255, 255);&quot;&gt;&amp;lt;&lt;/span&gt;&lt;span style=&quot;color: rgb(32, 33, 36); font-family: &amp;quot;Google Sans&amp;quot;, arial, sans-serif; background-color: rgb(255, 255, 255);&quot;&gt;&amp;lt;nn&lt;/span&gt;&lt;span style=&quot;color: rgb(32, 33, 36); font-family: &amp;quot;Google Sans&amp;quot;, arial, sans-serif; background-color: rgb(255, 255, 255);&quot;&gt;&amp;gt;&lt;/span&gt;&amp;gt;&lt;br&gt;fecha_modificacion:&amp;nbsp;&lt;span style=&quot;color: rgb(31, 35, 40); background-color: rgb(255, 255, 255);&quot;&gt;timestamp&amp;nbsp;&lt;/span&gt;&lt;span style=&quot;color: rgb(32, 33, 36); font-family: &amp;quot;Google Sans&amp;quot;, arial, sans-serif; background-color: rgb(255, 255, 255);&quot;&gt;&amp;lt;&lt;/span&gt;&lt;span style=&quot;color: rgb(32, 33, 36); font-family: &amp;quot;Google Sans&amp;quot;, arial, sans-serif; background-color: rgb(255, 255, 255);&quot;&gt;&amp;lt;nn&lt;/span&gt;&lt;span style=&quot;color: rgb(32, 33, 36); font-family: &amp;quot;Google Sans&amp;quot;, arial, sans-serif; background-color: rgb(255, 255, 255);&quot;&gt;&amp;gt;&lt;/span&gt;&amp;gt;&lt;br&gt;activo: boolean&amp;nbsp;&lt;span style=&quot;color: rgb(32, 33, 36); font-family: &amp;quot;Google Sans&amp;quot;, arial, sans-serif; background-color: rgb(255, 255, 255);&quot;&gt;&amp;lt;&lt;/span&gt;&lt;span style=&quot;color: rgb(32, 33, 36); font-family: &amp;quot;Google Sans&amp;quot;, arial, sans-serif; background-color: rgb(255, 255, 255);&quot;&gt;&amp;lt;nn&lt;/span&gt;&lt;span style=&quot;color: rgb(32, 33, 36); font-family: &amp;quot;Google Sans&amp;quot;, arial, sans-serif; background-color: rgb(255, 255, 255);&quot;&gt;&amp;gt;&lt;/span&gt;&amp;gt;&lt;br&gt;nombre: varchar(20)&lt;span style=&quot;color: rgb(32, 33, 36); font-family: &amp;quot;Google Sans&amp;quot;, arial, sans-serif; background-color: rgb(255, 255, 255);&quot;&gt;&amp;lt;&lt;/span&gt;&lt;span style=&quot;color: rgb(32, 33, 36); font-family: &amp;quot;Google Sans&amp;quot;, arial, sans-serif; background-color: rgb(255, 255, 255);&quot;&gt;&amp;lt;nn&lt;/span&gt;&lt;span style=&quot;color: rgb(32, 33, 36); font-family: &amp;quot;Google Sans&amp;quot;, arial, sans-serif; background-color: rgb(255, 255, 255);&quot;&gt;&amp;gt;&lt;/span&gt;&amp;gt;&amp;nbsp;&lt;br&gt;sistema_informacion_id: &lt;font face=&quot;Google Sans, arial, sans-serif&quot; color=&quot;#202124&quot;&gt;&lt;span style=&quot;background-color: rgb(255, 255, 255);&quot;&gt;int&lt;br&gt;&lt;/span&gt;&lt;/font&gt;nombre_wso2: varchar(20)&lt;span style=&quot;color: rgb(32, 33, 36); font-family: &amp;quot;Google Sans&amp;quot;, arial, sans-serif; background-color: rgb(255, 255, 255);&quot;&gt;&amp;lt;&lt;/span&gt;&lt;span style=&quot;color: rgb(32, 33, 36); font-family: &amp;quot;Google Sans&amp;quot;, arial, sans-serif; background-color: rgb(255, 255, 255);&quot;&gt;&amp;lt;nn&lt;/span&gt;&lt;span style=&quot;color: rgb(32, 33, 36); font-family: &amp;quot;Google Sans&amp;quot;, arial, sans-serif; background-color: rgb(255, 255, 255);&quot;&gt;&amp;gt;&lt;/span&gt;&amp;gt;&lt;br&gt;&lt;br&gt;&lt;br&gt;&lt;br&gt;&lt;br&gt;&lt;/td&gt;&lt;/tr&gt;&lt;/tbody&gt;&lt;/table&gt;" style="verticalAlign=top;align=left;overflow=fill;html=1;whiteSpace=wrap;" parent="1" vertex="1">
          <mxGeometry x="-693" y="-700" width="260" height="180" as="geometry" />
        </mxCell>
        <mxCell id="LH4rqOTp2wbxo8YjwL2F-7" style="edgeStyle=orthogonalEdgeStyle;rounded=0;orthogonalLoop=1;jettySize=auto;html=1;entryX=0.75;entryY=0;entryDx=0;entryDy=0;endArrow=none;endFill=0;" parent="1" source="LH4rqOTp2wbxo8YjwL2F-10" target="LH4rqOTp2wbxo8YjwL2F-6" edge="1">
          <mxGeometry relative="1" as="geometry">
            <Array as="points">
              <mxPoint x="-498" y="-780" />
            </Array>
          </mxGeometry>
        </mxCell>
        <mxCell id="LH4rqOTp2wbxo8YjwL2F-8" value="n" style="edgeLabel;html=1;align=center;verticalAlign=middle;resizable=0;points=[];" parent="LH4rqOTp2wbxo8YjwL2F-7" vertex="1" connectable="0">
          <mxGeometry x="-0.8526" y="2" relative="1" as="geometry">
            <mxPoint as="offset" />
          </mxGeometry>
        </mxCell>
        <mxCell id="LH4rqOTp2wbxo8YjwL2F-9" value="1" style="edgeLabel;html=1;align=center;verticalAlign=middle;resizable=0;points=[];" parent="LH4rqOTp2wbxo8YjwL2F-7" vertex="1" connectable="0">
          <mxGeometry x="0.8456" y="1" relative="1" as="geometry">
            <mxPoint as="offset" />
          </mxGeometry>
        </mxCell>
        <mxCell id="LH4rqOTp2wbxo8YjwL2F-10" value="&lt;div style=&quot;box-sizing:border-box;width:100%;background:#e4e4e4;padding:2px;&quot;&gt;periodo_rol_usuario&lt;/div&gt;&lt;table style=&quot;width:100%;font-size:1em;&quot; cellpadding=&quot;2&quot; cellspacing=&quot;0&quot;&gt;&lt;tbody&gt;&lt;tr&gt;&lt;td&gt;&lt;br&gt;&lt;/td&gt;&lt;td&gt;&lt;b&gt;&lt;font color=&quot;#4964a6&quot;&gt;id: serial&lt;br&gt;&lt;/font&gt;&lt;/b&gt;&lt;/td&gt;&lt;/tr&gt;&lt;tr&gt;&lt;td&gt;&lt;br&gt;&lt;/td&gt;&lt;td&gt;&lt;font color=&quot;#4964a6&quot;&gt;pk_usuarios: constraint&lt;br&gt;fk_periodos_rol_usuarios: constraint&lt;br&gt;fk_&lt;/font&gt;&lt;span style=&quot;color: rgb(73, 100, 166);&quot;&gt;periodos_rol_roles: constraint&lt;/span&gt;&lt;/td&gt;&lt;/tr&gt;&lt;tr&gt;&lt;td&gt;&lt;/td&gt;&lt;td&gt;fecha_creacion:&amp;nbsp;&lt;span style=&quot;box-sizing: border-box; color: rgb(31, 35, 40); background-color: rgb(255, 255, 255);&quot;&gt;timestamp&amp;nbsp;&lt;/span&gt;&lt;span style=&quot;color: rgb(32, 33, 36); font-family: &amp;quot;Google Sans&amp;quot;, arial, sans-serif; background-color: rgb(255, 255, 255);&quot;&gt;&amp;lt;&lt;/span&gt;&lt;span style=&quot;color: rgb(32, 33, 36); font-family: &amp;quot;Google Sans&amp;quot;, arial, sans-serif; background-color: rgb(255, 255, 255);&quot;&gt;&amp;lt;nn&lt;/span&gt;&lt;span style=&quot;color: rgb(32, 33, 36); font-family: &amp;quot;Google Sans&amp;quot;, arial, sans-serif; background-color: rgb(255, 255, 255);&quot;&gt;&amp;gt;&lt;/span&gt;&amp;gt;&lt;br&gt;fecha_modificacion:&amp;nbsp;&lt;span style=&quot;color: rgb(31, 35, 40); background-color: rgb(255, 255, 255);&quot;&gt;timestamp&amp;nbsp;&lt;/span&gt;&lt;span style=&quot;color: rgb(32, 33, 36); font-family: &amp;quot;Google Sans&amp;quot;, arial, sans-serif; background-color: rgb(255, 255, 255);&quot;&gt;&amp;lt;&lt;/span&gt;&lt;span style=&quot;color: rgb(32, 33, 36); font-family: &amp;quot;Google Sans&amp;quot;, arial, sans-serif; background-color: rgb(255, 255, 255);&quot;&gt;&amp;lt;nn&lt;/span&gt;&lt;span style=&quot;color: rgb(32, 33, 36); font-family: &amp;quot;Google Sans&amp;quot;, arial, sans-serif; background-color: rgb(255, 255, 255);&quot;&gt;&amp;gt;&lt;/span&gt;&amp;gt;&lt;br&gt;activo: boolean&amp;nbsp;&lt;span style=&quot;color: rgb(32, 33, 36); font-family: &amp;quot;Google Sans&amp;quot;, arial, sans-serif; background-color: rgb(255, 255, 255);&quot;&gt;&amp;lt;&lt;/span&gt;&lt;span style=&quot;color: rgb(32, 33, 36); font-family: &amp;quot;Google Sans&amp;quot;, arial, sans-serif; background-color: rgb(255, 255, 255);&quot;&gt;&amp;lt;nn&lt;/span&gt;&lt;span style=&quot;color: rgb(32, 33, 36); font-family: &amp;quot;Google Sans&amp;quot;, arial, sans-serif; background-color: rgb(255, 255, 255);&quot;&gt;&amp;gt;&lt;/span&gt;&amp;gt;&lt;br&gt;fecha_inicio:&amp;nbsp;&lt;span style=&quot;color: rgb(31, 35, 40); background-color: rgb(255, 255, 255);&quot;&gt;date&lt;/span&gt;(20)&lt;span style=&quot;color: rgb(32, 33, 36); font-family: &amp;quot;Google Sans&amp;quot;, arial, sans-serif; background-color: rgb(255, 255, 255);&quot;&gt;&amp;lt;&lt;/span&gt;&lt;span style=&quot;color: rgb(32, 33, 36); font-family: &amp;quot;Google Sans&amp;quot;, arial, sans-serif; background-color: rgb(255, 255, 255);&quot;&gt;&amp;lt;nn&lt;/span&gt;&lt;span style=&quot;color: rgb(32, 33, 36); font-family: &amp;quot;Google Sans&amp;quot;, arial, sans-serif; background-color: rgb(255, 255, 255);&quot;&gt;&amp;gt;&lt;/span&gt;&amp;gt;&lt;br&gt;fecha_fin:&amp;nbsp;&lt;span style=&quot;color: rgb(31, 35, 40); background-color: rgb(255, 255, 255);&quot;&gt;date&lt;br&gt;&lt;/span&gt;finalizado:boolean&amp;nbsp;&lt;span style=&quot;color: rgb(32, 33, 36); font-family: &amp;quot;Google Sans&amp;quot;, arial, sans-serif; background-color: rgb(255, 255, 255);&quot;&gt;&amp;lt;&lt;/span&gt;&lt;span style=&quot;color: rgb(32, 33, 36); font-family: &amp;quot;Google Sans&amp;quot;, arial, sans-serif; background-color: rgb(255, 255, 255);&quot;&gt;&amp;lt;nn&lt;/span&gt;&lt;span style=&quot;color: rgb(32, 33, 36); font-family: &amp;quot;Google Sans&amp;quot;, arial, sans-serif; background-color: rgb(255, 255, 255);&quot;&gt;&amp;gt;&lt;/span&gt;&amp;gt;&lt;br&gt;usuario_id : int&lt;span style=&quot;color: rgb(32, 33, 36); font-family: &amp;quot;Google Sans&amp;quot;, arial, sans-serif; background-color: rgb(255, 255, 255);&quot;&gt;&amp;lt;&lt;/span&gt;&lt;span style=&quot;color: rgb(32, 33, 36); font-family: &amp;quot;Google Sans&amp;quot;, arial, sans-serif; background-color: rgb(255, 255, 255);&quot;&gt;&amp;lt;fk nn&lt;/span&gt;&lt;span style=&quot;color: rgb(32, 33, 36); font-family: &amp;quot;Google Sans&amp;quot;, arial, sans-serif; background-color: rgb(255, 255, 255);&quot;&gt;&amp;gt;&lt;/span&gt;&amp;gt;&lt;br&gt;rol_id: int&lt;span style=&quot;color: rgb(32, 33, 36); font-family: &amp;quot;Google Sans&amp;quot;, arial, sans-serif; background-color: rgb(255, 255, 255);&quot;&gt;&amp;lt;&lt;/span&gt;&lt;span style=&quot;color: rgb(32, 33, 36); font-family: &amp;quot;Google Sans&amp;quot;, arial, sans-serif; background-color: rgb(255, 255, 255);&quot;&gt;&amp;lt;fk nn&lt;/span&gt;&lt;span style=&quot;color: rgb(32, 33, 36); font-family: &amp;quot;Google Sans&amp;quot;, arial, sans-serif; background-color: rgb(255, 255, 255);&quot;&gt;&amp;gt;&lt;/span&gt;&amp;gt;&lt;br&gt;&lt;br&gt;&lt;br&gt;&lt;br&gt;&lt;/td&gt;&lt;/tr&gt;&lt;/tbody&gt;&lt;/table&gt;" style="verticalAlign=top;align=left;overflow=fill;html=1;whiteSpace=wrap;" parent="1" vertex="1">
          <mxGeometry x="-423" y="-970" width="250" height="230" as="geometry" />
        </mxCell>
        <mxCell id="LH4rqOTp2wbxo8YjwL2F-11" value="&lt;p class=&quot;MsoNormal&quot;&gt;&lt;span style=&quot;font-size: 9pt; line-height: 107%; font-family: Helvetica, sans-serif; background-image: initial; background-position: initial; background-size: initial; background-repeat: initial; background-attachment: initial; background-origin: initial; background-clip: initial;&quot;&gt;solo se guardarÃ¡ informaciÃ³n&lt;br/&gt;esencial, informaciÃ³n como nombres, contacto o demÃ¡s serÃ¡ consumida de API&lt;br/&gt;&quot;Terceros&quot;,&amp;nbsp;&lt;/span&gt;&lt;/p&gt;" style="text;html=1;align=left;verticalAlign=middle;whiteSpace=wrap;rounded=0;" parent="1" vertex="1">
          <mxGeometry x="-763" y="-920" width="200" height="60" as="geometry" />
        </mxCell>
        <mxCell id="LH4rqOTp2wbxo8YjwL2F-12" value="&lt;p class=&quot;MsoNormal&quot;&gt;&lt;span style=&quot;font-size: 9pt; line-height: 107%; font-family: Helvetica, sans-serif; background-image: initial; background-position: initial; background-size: initial; background-repeat: initial; background-attachment: initial; background-origin: initial; background-clip: initial;&quot;&gt;permite llevar el&lt;br/&gt;control de los periodos de actividad del usuario segÃºn el rol asignado, asÃ­&lt;br/&gt;como tambiÃ©n permite a cambiar entre los diferentes roles (administrador,&lt;br/&gt;auditor, jefe, ejecutor, analista, soporte), se establecerÃ¡ en la lÃ³gica que&lt;br/&gt;solo lleve uno de los anteriores roles a la vez&lt;/span&gt;&lt;/p&gt;" style="text;html=1;align=left;verticalAlign=middle;whiteSpace=wrap;rounded=0;" parent="1" vertex="1">
          <mxGeometry x="-403" y="-1080" width="360" height="90" as="geometry" />
        </mxCell>
        <mxCell id="dZ4n4xoOKQm53V_wzgnh-1" value="&lt;p class=&quot;MsoNormal&quot;&gt;&lt;font face=&quot;Helvetica, sans-serif&quot;&gt;se traera el id de&amp;nbsp; sistema_informacion_id de parametros_crud&lt;/font&gt;&lt;/p&gt;" style="text;html=1;align=left;verticalAlign=middle;whiteSpace=wrap;rounded=0;" parent="1" vertex="1">
          <mxGeometry x="-423" y="-600" width="233" height="60" as="geometry" />
        </mxCell>
      </root>
    </mxGraphModel>
  </diagram>
</mxfile>
